<svg xmlns="http://www.w3.org/2000/svg" xmlns:xlink="http://www.w3.org/1999/xlink" width="500" zoomAndPan="magnify" viewBox="0 0 375 374.999991" height="500" preserveAspectRatio="xMidYMid meet" version="1.0"><defs><clipPath id="7d10216d62"><path d="M 283 157 L 311.304688 157 L 311.304688 166 L 283 166 Z M 283 157 " clip-rule="nonzero"/></clipPath><clipPath id="5d9672e90e"><path d="M 63.804688 157 L 92 157 L 92 166 L 63.804688 166 Z M 63.804688 157 " clip-rule="nonzero"/></clipPath><clipPath id="0eed9ef09a"><path d="M 33 327.304688 L 63.636719 327.304688 L 63.636719 364 L 33 364 Z M 33 327.304688 " clip-rule="nonzero"/></clipPath><clipPath id="8a7b28c9ab"><path d="M 14.886719 345 L 39 345 L 39 375 L 14.886719 375 Z M 14.886719 345 " clip-rule="nonzero"/></clipPath></defs><rect x="-37.5" width="450" fill="#ffffff" y="-37.499999" height="449.999989" fill-opacity="1"/><rect x="-37.5" width="450" fill="#81c782" y="-37.499999" height="449.999989" fill-opacity="1"/><path fill="#ffffff" d="M 149.335938 277.894531 L 149.335938 278.917969 L 226.675781 278.917969 L 226.675781 277.894531 C 226.675781 271.238281 227.1875 265.089844 228.726562 258.433594 L 147.800781 258.433594 C 148.824219 265.089844 149.335938 271.238281 149.335938 277.894531 Z M 149.335938 277.894531 " fill-opacity="1" fill-rule="nonzero"/><path fill="#ffffff" d="M 149.335938 296.847656 C 149.335938 307.089844 156.507812 315.285156 165.726562 317.332031 C 166.75 328.601562 175.96875 337.820312 187.75 337.820312 C 199.53125 337.820312 208.75 328.601562 209.773438 317.332031 C 218.992188 315.285156 226.164062 306.578125 226.164062 296.847656 L 226.164062 287.113281 L 149.335938 287.113281 Z M 149.335938 296.847656 " fill-opacity="1" fill-rule="nonzero"/><path fill="#ffffff" d="M 245.113281 103.242188 C 229.75 87.875 209.261719 79.683594 187.75 79.683594 C 166.238281 79.683594 146.265625 88.390625 130.898438 103.753906 C 116.046875 119.121094 107.339844 139.09375 107.339844 160.605469 C 107.339844 179.042969 113.996094 197.484375 125.777344 211.824219 C 134.996094 223.09375 141.65625 235.898438 145.75 249.726562 L 230.261719 249.726562 C 233.847656 235.898438 241.015625 223.09375 249.722656 211.824219 C 262.015625 197.484375 268.675781 179.042969 268.675781 160.09375 C 268.675781 139.09375 260.480469 118.605469 245.113281 103.242188 Z M 152.410156 129.875 C 145.238281 138.582031 141.140625 149.339844 141.140625 160.09375 C 141.140625 165.726562 142.167969 171.363281 144.214844 176.996094 L 136.53125 180.070312 C 133.972656 173.921875 132.949219 167.265625 132.949219 160.09375 C 132.949219 146.777344 137.558594 134.484375 146.265625 124.242188 C 154.457031 114.511719 166.238281 107.851562 179.042969 105.289062 L 180.582031 113.484375 C 169.3125 115.535156 159.582031 121.167969 152.410156 129.875 Z M 152.410156 129.875 " fill-opacity="1" fill-rule="nonzero"/><path fill="#ffffff" d="M 183.140625 37.171875 L 191.335938 37.171875 L 191.335938 65.339844 L 183.140625 65.339844 Z M 183.140625 37.171875 " fill-opacity="1" fill-rule="nonzero"/><path fill="#ffffff" d="M 252.21875 90.21875 L 272.136719 70.300781 L 277.933594 76.09375 L 258.015625 96.015625 Z M 252.21875 90.21875 " fill-opacity="1" fill-rule="nonzero"/><path fill="#ffffff" d="M 97.042969 245.414062 L 116.960938 225.496094 L 122.757812 231.289062 L 102.835938 251.207031 Z M 97.042969 245.414062 " fill-opacity="1" fill-rule="nonzero"/><g clip-path="url(#7d10216d62)"><path fill="#ffffff" d="M 283.015625 157.019531 L 311.1875 157.019531 L 311.1875 165.214844 L 283.015625 165.214844 Z M 283.015625 157.019531 " fill-opacity="1" fill-rule="nonzero"/></g><g clip-path="url(#5d9672e90e)"><path fill="#ffffff" d="M 63.804688 157.019531 L 91.972656 157.019531 L 91.972656 165.214844 L 63.804688 165.214844 Z M 63.804688 157.019531 " fill-opacity="1" fill-rule="nonzero"/></g><path fill="#ffffff" d="M 252.226562 231.644531 L 258.019531 225.851562 L 277.941406 245.769531 L 272.144531 251.566406 Z M 252.226562 231.644531 " fill-opacity="1" fill-rule="nonzero"/><path fill="#ffffff" d="M 97.03125 76.464844 L 102.824219 70.671875 L 122.746094 90.589844 L 116.949219 96.382812 Z M 97.03125 76.464844 " fill-opacity="1" fill-rule="nonzero"/><g clip-path="url(#0eed9ef09a)"><path fill="#81c782" d="M 35.601562 344.066406 C 34.175781 346.625 33.410156 349.097656 33.214844 351.371094 C 34.296875 352.277344 35.320312 353.304688 36.242188 354.449219 C 38.464844 350.523438 42.453125 345.515625 49.285156 342.402344 C 49.285156 342.402344 41.996094 346.519531 38.449219 357.832031 C 39.238281 359.382812 39.742188 360.9375 39.953125 362.4375 C 40.082031 362.507812 40.210938 362.570312 40.320312 362.609375 C 47.300781 365.074219 55.0625 358.566406 55.960938 348.851562 C 57.546875 331.761719 63.789062 327.320312 63.789062 327.320312 C 63.789062 327.320312 43.527344 329.832031 35.601562 344.066406 Z M 35.601562 344.066406 " fill-opacity="1" fill-rule="nonzero"/></g><g clip-path="url(#8a7b28c9ab)"><path fill="#81c782" d="M 36.835938 357.269531 C 30.410156 346.621094 14.882812 345.246094 14.882812 345.246094 C 14.882812 345.246094 18.921875 346.710938 20.621094 360.941406 C 21.507812 368.335938 28.125 372.261719 33.730469 371.542969 C 34.699219 371.417969 35.535156 371.25 36.3125 371.796875 C 36.660156 372.042969 37.519531 373.835938 37.894531 374.972656 L 38.097656 374.476562 C 38.273438 374.039062 38.308594 373.554688 38.175781 373.105469 C 35.242188 363.179688 26.351562 356.363281 26.351562 356.363281 C 33.449219 359.304688 36.742188 364.972656 38.015625 367.84375 C 39.484375 365.066406 39.257812 361.277344 36.835938 357.269531 Z M 36.835938 357.269531 " fill-opacity="1" fill-rule="nonzero"/></g></svg>